Coordinates
version=1
nRows=24
nColumns=24
inDegrees=yes

Units are S.I. units (second, meters, Newtons, ...)
If the header above contains a line with 'inDegrees', this indicates whether rotational values are in degrees (yes) or radians (no).

endheader
time	pelvis_tilt	pelvis_list	pelvis_rotation	pelvis_tx	pelvis_ty	pelvis_tz	hip_flexion_r	hip_adduction_r	hip_rotation_r	knee_angle_r	ankle_angle_r	subtalar_angle_r	mtp_angle_r	hip_flexion_l	hip_adduction_l	hip_rotation_l	knee_angle_l	ankle_angle_l	subtalar_angle_l	mtp_angle_l	lumbar_extension	lumbar_bending	lumbar_rotation
7.300000	9.312517	3.580545	-179.738703	0.290541	0.515615	-1.224054	74.021040	-28.655093	-10.870132	-113.064155	43.248028	10.555913	0.000000	80.836613	-33.808693	2.487160	-111.772965	42.407020	18.485113	0.000000	-13.063791	2.100163	4.772214
7.305000	9.295120	3.572749	-179.734480	0.290674	0.515489	-1.224102	74.033700	-28.652999	-10.858606	-113.085269	43.245817	10.545939	0.000000	80.852781	-33.802233	2.504852	-111.805258	42.405460	18.492209	0.000000	-13.091778	2.089874	4.777653
7.310000	9.279316	3.582461	-179.726513	0.290814	0.515399	-1.224112	74.041327	-28.633334	-10.805327	-113.118844	43.235523	10.562891	0.000000	80.868637	-33.788808	2.525636	-111.806024	42.400871	18.493384	0.000000	-13.117623	2.107161	4.789322
7.315000	9.254779	3.582985	-179.748918	0.290908	0.515361	-1.224099	74.049559	-28.622873	-10.847874	-113.121112	43.240419	10.428694	0.000000	80.860186	-33.809259	2.529557	-111.811885	42.396773	18.459526	0.000000	-13.145374	2.110021	4.848979
7.320000	9.243431	3.584722	-179.750321	0.291000	0.515291	-1.224113	74.060480	-28.616926	-10.841082	-113.134663	43.234843	10.427356	0.000000	80.869844	-33.806824	2.542855	-111.822804	42.396166	18.456786	0.000000	-13.159809	2.113874	4.855022
7.325000	9.245977	3.586427	-179.733068	0.291087	0.515319	-1.224179	74.051993	-28.613522	-10.855602	-113.116572	43.228068	10.424069	0.000000	80.875407	-33.792643	2.545438	-111.798641	42.390992	18.458025	0.000000	-13.154040	2.109995	4.871634
7.330000	9.233983	3.582850	-179.710965	0.291235	0.515253	-1.224250	74.046713	-28.610842	-10.839869	-113.113446	43.224126	10.431092	0.000000	80.898388	-33.772263	2.567399	-111.814891	42.378064	18.468194	0.000000	-13.171423	2.098385	4.891976
7.335000	9.214392	3.583426	-179.685232	0.291363	0.515228	-1.224305	74.034742	-28.623537	-10.851008	-113.121223	43.214266	10.436539	0.000000	80.910126	-33.757598	2.581715	-111.809279	42.340239	18.493252	0.000000	-13.193928	2.098944	4.906072
7.340000	9.186200	3.604070	-179.689293	0.291505	0.515150	-1.224325	74.034464	-28.594723	-10.814391	-113.165419	43.181565	10.519511	0.000000	80.927512	-33.772164	2.607920	-111.808739	42.323947	18.465203	0.000000	-13.234116	2.137925	4.898151
7.345000	9.188533	3.605839	-179.690071	0.291542	0.515124	-1.224244	74.048451	-28.615344	-10.878023	-113.163819	43.229060	10.341000	0.000000	80.938153	-33.763104	2.611143	-111.817272	42.320582	18.417656	0.000000	-13.226415	2.145645	4.941391
7.350000	9.190956	3.617266	-179.699518	0.291654	0.515032	-1.224264	74.065684	-28.585264	-10.816898	-113.176610	43.210232	10.509802	0.000000	80.975818	-33.776335	2.634666	-111.839540	42.286742	18.413184	0.000000	-13.222571	2.165731	4.967467
7.355000	9.165103	3.599666	-179.665510	0.291743	0.514986	-1.224239	74.052277	-28.631088	-10.868212	-113.174890	43.226997	10.349444	0.000000	80.953142	-33.734865	2.624179	-111.839244	42.283422	18.430441	0.000000	-13.251752	2.169540	4.906893
7.360000	9.154481	3.605057	-179.659286	0.291856	0.514966	-1.224343	74.047640	-28.588739	-10.804469	-113.185729	43.192842	10.420687	0.000000	80.971644	-33.742966	2.644178	-111.831206	42.271584	18.448166	0.000000	-13.264058	2.187662	4.857742
7.365000	9.135312	3.604168	-179.646301	0.292002	0.514898	-1.224384	74.053705	-28.591509	-10.798087	-113.201132	43.191920	10.431920	0.000000	80.982134	-33.733519	2.656180	-111.837871	42.270910	18.453309	0.000000	-13.289935	2.181726	4.864981
7.370000	9.105730	3.603190	-179.621378	0.292069	0.514938	-1.224382	74.026385	-28.622690	-10.864287	-113.191825	43.232912	10.288641	0.000000	80.963322	-33.720837	2.655185	-111.837090	42.274807	18.477514	0.000000	-13.316491	2.182014	4.856912
7.375000	9.098661	3.602990	-179.619979	0.292133	0.514941	-1.224366	74.030394	-28.624247	-10.863618	-113.194121	43.233200	10.284955	0.000000	80.963845	-33.725423	2.651588	-111.841300	42.273878	18.477931	0.000000	-13.318298	2.191565	4.859962
7.380000	9.098108	3.602960	-179.609598	0.292191	0.515013	-1.224410	74.012740	-28.606720	-10.815801	-113.183995	43.190371	10.401561	0.000000	80.959985	-33.728851	2.626186	-111.783798	42.223292	18.474072	0.000000	-13.302128	2.195721	4.871406
7.385000	9.058497	3.577917	-179.590511	0.292342	0.514968	-1.224455	73.996553	-28.621923	-10.788393	-113.191029	43.226449	10.425281	0.000000	80.926133	-33.717269	2.614839	-111.805597	42.237235	18.546437	0.000000	-13.350259	2.169334	4.863148
7.390000	9.066291	3.575142	-179.586404	0.292356	0.515020	-1.224454	73.995508	-28.626980	-10.793862	-113.178681	43.211528	10.437629	0.000000	80.926675	-33.726405	2.594211	-111.791869	42.242177	18.559386	0.000000	-13.329091	2.162146	4.895935
7.395000	9.034359	3.550593	-179.581162	0.292456	0.515019	-1.224442	73.996071	-28.646875	-10.832547	-113.173567	43.225404	10.214780	0.000000	80.887416	-33.722173	2.551912	-111.761789	42.195204	18.526733	0.000000	-13.355283	2.151371	4.865736
7.400000	9.026715	3.551210	-179.587282	0.292526	0.515088	-1.224477	73.991156	-28.617227	-10.769051	-113.171129	43.196835	10.363066	0.000000	80.882771	-33.737978	2.556359	-111.780756	42.213035	18.573457	0.000000	-13.352138	2.154168	4.897645
7.405000	9.011072	3.532463	-179.557563	0.292593	0.515193	-1.224506	73.965729	-28.652863	-10.827035	-113.139652	43.244966	10.223535	0.000000	80.849718	-33.711986	2.513831	-111.723326	42.185346	18.559452	0.000000	-13.356789	2.133047	4.863101
7.410000	9.017887	3.526458	-179.542704	0.292638	0.515343	-1.224581	73.944240	-28.647989	-10.839379	-113.099316	43.239937	10.214532	0.000000	80.836143	-33.711496	2.501517	-111.700485	42.186149	18.570172	0.000000	-13.337887	2.113571	4.870806
7.415000	9.006334	3.522027	-179.533424	0.292757	0.515378	-1.224621	73.930603	-28.638302	-10.837024	-113.077459	43.243708	10.206311	0.000000	80.825661	-33.710987	2.473929	-111.659035	42.175503	18.574678	0.000000	-13.337223	2.125682	4.857006
